<svg xmlns="http://www.w3.org/2000/svg" viewBox="0 0 161.37 39.11"><defs><style>.cls-1{fill:#fff;}</style></defs><g id="Layer_2" data-name="Layer 2"><g id="Layer_1-2" data-name="Layer 1"><path class="cls-1" d="M108.2,11.4c-.17.35-.27.58-.39.81A4.2,4.2,0,0,1,104,14.66c-.84,0-1.68,0-2.52,0-.56,0-.87-.22-.86-.79s.42-.68.89-.68c.7,0,1.39,0,2.09,0a3.08,3.08,0,0,0,3.2-2.53c.48-1.95,1-3.9,1.45-5.85a2.86,2.86,0,0,1,.07-.28c.24-.87.74-1.29,1.38-1.16s1.05.76.89,1.68c-.19,1.13-.39,2.26-.55,3.4a3.89,3.89,0,0,0,3.57,4.68c1.59.14,3.21.05,4.81.06.21,0,.43,0,.61,0s.11-.11.11-.15c0-2.58.11-5.18-.12-7.74a3.72,3.72,0,0,0-4.16-3.71c-2.33.07-4.65,0-7,0a4.56,4.56,0,0,1-.64,0,.68.68,0,0,1-.67-.84,1,1,0,0,1,.73-.58c1.94,0,3.88,0,5.82,0H117c3.6,0,5.91,2.15,6.1,5.75.11,2.06.07,4.12.09,6.18,0,.31,0,.62,0,1h14.89a7.36,7.36,0,0,1,0-11.45c-.44,0-.68,0-.93,0-1.55.06-1.74-.09-1.81-.83s.34-.78,1.85-.78h16.89a8.36,8.36,0,0,1,4.37,1.21,5.28,5.28,0,0,1,2.69,4.64c.07,2.34,0,4.69,0,7a1.89,1.89,0,0,1-1.79,1.89c-.22,0-.43,0-.65,0H114.87a11.66,11.66,0,0,1-2.28-.21C110.71,14.18,109,13.46,108.2,11.4ZM150,1.49v8c0,1-.55,1.7-1.36,1.72s-1.34-.66-1.34-1.7c0-2.37,0-4.74,0-7.11,0-.25,0-.5,0-.76a19.65,19.65,0,0,0-3.44,0,5.75,5.75,0,0,0-4.53,6.19,5.76,5.76,0,0,0,5.57,5.28c3.81.05,7.62,0,11.43,0,.73,0,1.08-.33,1.08-1,0-2.06,0-4.12,0-6.18a4.15,4.15,0,0,0-2.84-4A11.64,11.64,0,0,0,150,1.49Z"/><path class="cls-1" d="M51,14.7c-5.37,0-10.74,0-16.1,0a8.3,8.3,0,0,1-3.13-.6A4.65,4.65,0,0,1,28.94,9.3a34.19,34.19,0,0,1,.69-4.9A1.13,1.13,0,0,1,31,3.47a1.16,1.16,0,0,1,.82,1.4c-.18,1.11-.35,2.22-.58,3.32a4,4,0,0,0,4,4.94c1.65-.07,3.3,0,5,0,.37,0,.66,0,.65-.52,0-2.44,0-4.88-.13-7.32a3.69,3.69,0,0,0-1.46-2.93,3.59,3.59,0,0,0-1.86-.75c-2.82-.07-5.65,0-8.48,0-.23,0-.66-.33-.64-.42a1.49,1.49,0,0,1,.49-.8c.18-.13.51-.06.77-.06h9.06c3.43,0,5.71,1.93,6,5.35.21,2.19.11,4.4.14,6.61,0,1,0,1,1,1H67.79c1.36,0,1.83-.45,1.83-1.8,0-2.85,0-5.7,0-8.55a6.63,6.63,0,0,1,.06-1A1.71,1.71,0,0,1,71.55.3a1.78,1.78,0,0,1,1.76,1.81c0,2.28,0,4.55,0,6.83a6.41,6.41,0,0,1-.27,1.68,5.74,5.74,0,0,1-5.49,4.08Z"/><path class="cls-1" d="M88.58,14.52c-2,0-4,.11-6,0a5.42,5.42,0,0,1-4.81-4.93c-.13-2.51-.09-5-.07-7.54A1.77,1.77,0,0,1,79.67.16a1.84,1.84,0,0,1,1.83,2c0,3,0,6,0,9,0,1.57.72,2.3,2.26,2.3,2.93,0,5.85,0,8.77,0a6.86,6.86,0,0,0,1.28-.13,2.51,2.51,0,0,0,2.24-2.64c0-1.53,0-3.06,0-4.59a1.81,1.81,0,0,1,1.78-2,1.73,1.73,0,0,1,1.87,1.82,41.32,41.32,0,0,1-.11,4.45,4.22,4.22,0,0,1-3.4,3.87,21.38,21.38,0,0,1-3.48.45c-1.38.07-2.78,0-4.17,0Z"/><path class="cls-1" d="M46.45,29.37l-.73,1.37q-1.8,3.47-3.59,6.94a1.84,1.84,0,0,1-1.89,1.14,1.91,1.91,0,0,1-1.56-1.21q-2-3.78-4-7.54a1.38,1.38,0,0,0-.49-.58v.73c0,2.52,0,5,0,7.55a1.45,1.45,0,0,1-.05.63.77.77,0,0,1-.51.38c-.17,0-.37-.23-.48-.4s0-.33,0-.5q0-4.46,0-8.9a2,2,0,0,1,3.81-1c1.32,2.5,2.62,5,3.94,7.49a4.79,4.79,0,0,0,.64.72,3.44,3.44,0,0,0,.63-.7c1.32-2.5,2.61-5,3.9-7.52a1.93,1.93,0,0,1,2.14-1.19,1.82,1.82,0,0,1,1.43,2q0,4.09,0,8.19a1.44,1.44,0,0,1-1.48,1.64A1.47,1.47,0,0,1,46.62,37c0-2.54,0-5.07,0-7.61Z"/><path class="cls-1" d="M3.13,33.05c0,1.44,0,2.75,0,4.06A1.69,1.69,0,0,1,1.7,38.77,1.53,1.53,0,0,1,.09,37.71,2.35,2.35,0,0,1,0,37c0-2.83,0-5.65,0-8.48a1.59,1.59,0,0,1,1.49-1.75A1.58,1.58,0,0,1,3,28.5c0,1.05,0,2.11,0,3.16,0,.2.25.58.38.58,2.13,0,4.26,0,6.51,0,0-1.29-.07-2.53,0-3.76a2.2,2.2,0,0,1,.66-1.4,1.53,1.53,0,0,1,2.42.91,2.79,2.79,0,0,1,.07.64c0,2.78,0,5.56,0,8.33A1.59,1.59,0,0,1,11,38.66,1.63,1.63,0,0,1,10,37c0-1.07,0-2.15,0-3.23,0-.51-.1-.72-.67-.71C7.29,33.07,5.26,33.05,3.13,33.05Z"/><path class="cls-1" d="M12.86,11.22c0,1.68.05,3.35,0,5a4.9,4.9,0,0,1-3.71,4.58,14.11,14.11,0,0,1-2.89.43c-1.7.07-3.4,0-5.1,0-.71,0-1.16-.38-1.12-.92s.52-.85,1.1-.87l4.8-.16a3.42,3.42,0,0,0,.77-.17c2-.59,2.52-1.34,2.52-3.37,0-3.26,0-6.51,0-9.76A1.89,1.89,0,1,1,13,6.2v5Z"/><path class="cls-1" d="M107.08,39.11a33.86,33.86,0,0,1-3.42-.62,5.12,5.12,0,0,1-3.91-4.31c-.48-3,.34-5.61,3.18-6.73,3.23-1.28,6.54-1.36,9.48.82,2,1.47,2.24,3.7,1.85,6a5,5,0,0,1-3.56,4.11A32.38,32.38,0,0,1,107.08,39.11Zm4.17-6.5c-.11-.75-.18-1.73-.4-2.68a2.83,2.83,0,0,0-2.29-2.31,9.26,9.26,0,0,0-2.63-.1,3.15,3.15,0,0,0-2.86,2.69,11.61,11.61,0,0,0-.06,4.84c.4,2.11,1.25,3,3.39,3.14,2.6.22,4.27-.59,4.65-3.43C111.14,34.13,111.17,33.48,111.25,32.61Z"/><path class="cls-1" d="M152.68,38.05c1.43-.12,2.86-.18,4.27-.4a1.74,1.74,0,0,0,.13-3.43c-1.1-.31-2.23-.55-3.33-.87-.91-.26-1.82-.56-2.71-.91a2.4,2.4,0,0,1-1.62-2.1,2.72,2.72,0,0,1,1.22-2.73,6.33,6.33,0,0,1,3.48-1c1.77,0,3.54.06,5.31.13.2,0,.38.24.57.37-.2.11-.41.3-.62.3-1.58,0-3.16,0-4.73,0a4.59,4.59,0,0,0-1.32.29,1.5,1.5,0,0,0-1,1.56,1.37,1.37,0,0,0,.94,1.47c1.2.38,2.43.66,3.64,1a29.35,29.35,0,0,1,2.78.95,2.62,2.62,0,0,1,.29,4.79,7.35,7.35,0,0,1-3.82,1.09c-1.89,0-3.78-.09-5.67-.15a.52.52,0,0,1-.22,0l-.66-.38a2.57,2.57,0,0,1,.72-.25c.79,0,1.58,0,2.37,0Z"/><path class="cls-1" d="M22,28.41,19.1,34.54c1.43.45,3-.37,4.29.52l0,.29c-1.16,0-2.32.07-3.47,0a1.38,1.38,0,0,0-1.66,1,18.58,18.58,0,0,1-.82,1.75,1.08,1.08,0,0,1-1.39.65c.19-.41.35-.81.54-1.19,1.43-3.08,2.88-6.15,4.31-9.23a2.25,2.25,0,0,1,4.27,0c1.49,3.15,3,6.3,4.52,9.44.38.79.22,1.06-.64,1.08-2.09.05-2.08.05-3-1.85-1.24-2.62-2.48-5.23-3.71-7.85C22.24,28.94,22.13,28.76,22,28.41Z"/><path class="cls-1" d="M122.17,28.39l-2.92,6.28c.86,0,1.6-.05,2.32,0s1.49-.33,2.06.67c-1.39,0-2.65,0-3.9,0a1,1,0,0,0-1.14.7c-.27.69-.65,1.34-.94,2a1.11,1.11,0,0,1-1.43.71c.28-.6.55-1.19.83-1.76l4-8.56a2.28,2.28,0,0,1,4.37,0c1.44,3.12,2.91,6.23,4.37,9.35.38.82.24,1-.63,1.06-2.06,0-2.06,0-2.94-1.81-1.2-2.53-2.39-5.06-3.59-7.58C122.54,29.14,122.39,28.85,122.17,28.39Z"/><path class="cls-1" d="M70.09,28.42c-1,2.11-1.92,4.11-2.91,6.25,1.24,0,2.33,0,3.42,0,.6,0,.63,0,.91.68-1.15,0-2.27.09-3.37,0a1.54,1.54,0,0,0-1.85,1.19c-.18.54-.5,1-.73,1.56a1.09,1.09,0,0,1-1.39.69c.1-.24.18-.48.29-.7C66,34.85,67.53,31.64,69,28.41a2.37,2.37,0,0,1,2.16-1.62,2.34,2.34,0,0,1,2.21,1.64c1.44,3.12,2.92,6.23,4.38,9.35.37.8.21.94-.66,1.07-1.55.23-2.37-.32-3-1.83-1.08-2.67-2.43-5.24-3.67-7.86C70.38,29,70.26,28.75,70.09,28.42Z"/><path class="cls-1" d="M134.57,29.79v7.94a1.63,1.63,0,0,1-.06.63c-.09.17-.31.39-.45.38a.83.83,0,0,1-.54-.38,1.28,1.28,0,0,1-.06-.63c0-3.11,0-6.22,0-9.33a1.42,1.42,0,0,1,.77-1.48,1.39,1.39,0,0,1,1.63.39l9.46,8.8a1.76,1.76,0,0,1,.4,1.91,1.07,1.07,0,0,1-1.45.65,3.33,3.33,0,0,1-.81-.58l-8.12-7.61Z"/><path class="cls-1" d="M60.64,27.72v9.21c0,1.14-.59,1.84-1.55,1.85s-1.54-.72-1.54-1.87c0-2.78,0-5.56,0-8.34v-.85H53.9a1.69,1.69,0,0,1-.64,0,.67.67,0,0,1-.37-.44c0-.15.2-.36.36-.44a1.29,1.29,0,0,1,.56,0H64.38c.07,0,.16,0,.21,0,.25.16.48.33.72.49-.23.15-.45.42-.69.43-1,.05-1.91,0-2.87,0Z"/><path class="cls-1" d="M20.67,8.72c0-.9,0-1.81,0-2.72a1.8,1.8,0,1,1,3.59,0,51.67,51.67,0,0,1-.16,5.43,3.94,3.94,0,0,1-3.2,3.46,21.13,21.13,0,0,1-3.39.48,11.88,11.88,0,0,1-2.15,0c-.2,0-.37-.35-.55-.55.19-.18.37-.51.58-.53.76-.06,1.53,0,2.3,0a2.8,2.8,0,0,0,3-3c0-.86,0-1.73,0-2.59Z"/><path class="cls-1" d="M91.4,32.78c0,1.29,0,2.59,0,3.88,0,1,.35,1.41,1.42,1.42,1.61,0,3.21,0,4.82,0a1.81,1.81,0,0,1,.57,0,3.62,3.62,0,0,1,.62.37c-.2.12-.39.33-.6.34-1.19,0-2.39,0-3.59,0-1.36,0-2.73,0-4.09,0a2,2,0,0,1-2.23-2.23c0-2.68,0-5.36,0-8a1.62,1.62,0,0,1,1.49-1.77,1.6,1.6,0,0,1,1.58,1.69c0,1.44,0,2.88,0,4.31Z"/><path class="cls-1" d="M35.33,21.22c-.86,0-1.72,0-2.58,0s-1.15-.39-1.11-.94.51-.83,1.11-.84c1.48,0,3,0,4.44-.15a8,8,0,0,0,2-.54,2.38,2.38,0,0,0,1.62-2.1c.05-.59.34-.77.89-.76.71,0,1.43,0,2.15,0,.54,0,.77.23.64.82A5.53,5.53,0,0,1,39,21.11c-1.22.07-2.44,0-3.66,0Z"/><path class="cls-1" d="M93.39.15h5.82c.53,0,.84.24.82.77s-.34.71-.83.69c-.14,0-.29,0-.43,0H87.42A.66.66,0,0,1,86.7.82c0-.5.31-.7.8-.7h5.89Z"/><path class="cls-1" d="M145.79,28.64a3.81,3.81,0,0,1,0,1.07.92.92,0,0,1-.55.57c-.14,0-.52-.3-.54-.49a17.38,17.38,0,0,1,0-2.5.75.75,0,0,1,.57-.46.77.77,0,0,1,.52.52A6.17,6.17,0,0,1,145.79,28.64Z"/><path class="cls-1" d="M11.2,1.6c-1,0-1.38-.19-1.34-.74.07-.92.77-.71,1.34-.71h.5c.49,0,.78.23.77.73a.66.66,0,0,1-.77.72Z"/><path class="cls-1" d="M22.75,1.59c-.57,0-1.28.11-1.28-.72s.72-.71,1.28-.72c.21,0,.48-.06.63,0s.52.44.51.65a1.25,1.25,0,0,1-.51.73C23.24,1.67,23,1.59,22.75,1.59Z"/></g></g></svg>